<svg xmlns="http://www.w3.org/2000/svg" xmlns:xlink="http://www.w3.org/1999/xlink" viewBox="0 0 32 32">

    <path fill-rule="evenodd" transform="translate(6 3)" d="M18.7910104,4.79194499 C18.0210104,5.56094499 16.8770104,5.84394499 16.0580104,5.94494499 C16.1600104,5.12494499 16.4430104,3.97694499 17.2090104,3.20994499 C17.9790104,2.43994499 19.1240104,2.15794499 19.9420104,2.05694499 C19.8400104,2.87694499 19.5570104,4.02494499 18.7910104,4.79194499 M21.9940104,0.949944985 C21.9670104,0.439944985 21.5610104,0.0339449851 21.0510104,0.00694498506 C20.9240104,-0.00505501494 17.7430104,-0.151055015 15.7950104,1.79594499 C14.1080104,3.48194499 13.9950104,6.08294499 14.0010104,6.83994499 L9.04901041,21.960945 L1.93801041,2.65894499 C1.74601041,2.14094499 1.17101041,1.87494499 0.654010407,2.06594499 C0.136010407,2.25794499 -0.128989593,2.83194499 0.0620104065,3.35094499 L8.16601041,25.350945 C8.31201041,25.743945 8.68701041,26.004945 9.10401041,26.004945 L9.12301041,26.004945 C9.54901041,25.996945 9.92301041,25.720945 10.0550104,25.315945 L15.7310104,7.97994499 C16.8210104,7.91194499 18.8180104,7.59294499 20.2050104,6.20594499 C22.1530104,4.25794499 22.0020104,1.08394499 21.9940104,0.949944985"/>

</svg>
