<svg xmlns="http://www.w3.org/2000/svg" width="48" height="48" viewBox="0 0 48 48">
  <g fill="none" fill-rule="evenodd">
    <circle cx="24" cy="24" r="24" fill="#CE1312"/>
    <path fill="#FFFFFF" d="M35.76,19.6670814 C35.76,19.6670814 35.52525,18.0015995 34.806,17.2681832 C33.89325,16.3051495 32.87025,16.3006176 32.4015,16.2447239 C29.043,16 24.00525,16 24.00525,16 L23.99475,16 C23.99475,16 18.957,16 15.5985,16.2447239 C15.129,16.3006176 14.10675,16.3051495 13.19325,17.2681832 C12.474,18.0015995 12.24,19.6670814 12.24,19.6670814 C12.24,19.6670814 12,21.6233616 12,23.5788866 L12,25.4128049 C12,27.3690852 12.24,29.3246101 12.24,29.3246101 C12.24,29.3246101 12.474,30.990092 13.19325,31.7235082 C14.10675,32.686542 15.306,32.6563291 15.84,32.7567868 C17.76,32.9425956 24,33 24,33 C24,33 29.043,32.9924468 32.4015,32.7477229 C32.87025,32.6910739 33.89325,32.686542 34.806,31.7235082 C35.52525,30.990092 35.76,29.3246101 35.76,29.3246101 C35.76,29.3246101 36,27.3690852 36,25.4128049 L36,23.5788866 C36,21.6233616 35.76,19.6670814 35.76,19.6670814 L35.76,19.6670814 Z M21.4485301,27.775735 C21.2008137,27.8995931 21,27.7670975 21,27.4965773 L21,21.5034227 C21,21.22539 21.2019472,21.1009736 21.4485301,21.224265 L27.5514699,24.275735 C27.7991863,24.3995931 27.7980528,24.6009736 27.5514699,24.724265 L21.4485301,27.775735 Z"/>
  </g>
</svg>
